<svg width="716" height="467" viewBox="0 0 716 467" fill="none" xmlns="http://www.w3.org/2000/svg"><path fill="#fff" d="M0 0h716v467H0z"/><path opacity=".2" d="M191.1 294.222L69.97 364.153a1.015 1.015 0 000 1.743l123.768 71.449a2.574 2.574 0 002.605 0l123.743-71.408a1.005 1.005 0 000-1.742l-121.129-69.932a7.812 7.812 0 00-7.857-.041z" fill="#63D0FF"/><path d="M193.589 240.975L53.171 322.098a1.297 1.297 0 00-.478 1.774 1.3 1.3 0 00.477.475l140.726 81.355a2.604 2.604 0 002.605 0l140.411-81.123a1.31 1.31 0 000-2.257l-140.718-81.347a2.6 2.6 0 00-2.605 0z" fill="url(#prefix__paint0_linear_4909_29464)"/><path fill-rule="evenodd" clip-rule="evenodd" d="M168.348 319.192l22.154-3.424 29.913 17.269-22.153 3.424-29.914-17.269z" fill="#fff"/><path d="M192.837 309.094l-24.048 3.738 6.101 3.522 16.371-2.533 18.314 10.573 7.689-1.198c4.767-.742 6.189-2.768 3.169-4.511l-13.422-7.749c-3.032-1.756-9.402-2.58-14.174-1.842z" fill="#fff" fill-opacity=".8"/><path opacity=".2" d="M546.262 208.677L369.67 310.816a.62.62 0 00-.228.85.623.623 0 00.228.228l76.884 44.387a1.62 1.62 0 001.66 0l178.176-103.11a.617.617 0 000-1.078l-75.249-43.416a4.842 4.842 0 00-4.879 0z" fill="#63D0FF"/><path d="M553.596 177.98L364.75 286.988a1.311 1.311 0 000 2.256l81.074 46.801a2.601 2.601 0 002.605 0L637.275 227.02a1.312 1.312 0 000-2.256l-81.074-46.784a2.6 2.6 0 00-2.605 0z" fill="url(#prefix__paint1_linear_4909_29464)"/><path d="M637.921 225.892a1.29 1.29 0 01-.647 1.128L448.428 336.045a2.62 2.62 0 01-1.302.349v6.944a2.62 2.62 0 001.302-.349l188.846-109.024a1.309 1.309 0 00.647-1.129v-6.944z" fill="url(#prefix__paint2_linear_4909_29464)"/><path d="M445.823 335.671l-81.074-46.8a1.292 1.292 0 01-.647-1.129v6.944a1.309 1.309 0 00.647 1.129l81.074 46.8c.395.23.845.35 1.302.349v-6.944a2.577 2.577 0 01-1.302-.349z" fill="url(#prefix__paint3_linear_4909_29464)"/><path d="M455.962 313.561l-8.047-4.646 8.047-4.638 8.04 4.638-8.04 4.646zM446.711 318.904l-8.039-4.646 8.039-4.646 8.048 4.646-8.048 4.646zM446.711 308.226l-8.039-4.646 8.039-4.646 8.04 4.646-8.04 4.646zM437.469 313.561l-8.048-4.646 8.048-4.638 8.039 4.638-8.039 4.646z" fill="#000"/><path opacity=".2" d="M240.492 145.847L417.076 248.01a.623.623 0 010 1.079l-76.867 44.386a1.66 1.66 0 01-1.66 0L160.356 190.366a.623.623 0 010-1.079l75.258-43.44a4.882 4.882 0 014.878 0z" fill="#63D0FF"/><path d="M233.491 116.162l188.331 108.842a1.314 1.314 0 01.472 1.778 1.314 1.314 0 01-.472.479l-81.074 46.809a2.61 2.61 0 01-2.605 0L149.812 165.227a1.296 1.296 0 01-.652-1.128 1.3 1.3 0 01.652-1.128l81.065-46.809a2.608 2.608 0 012.614 0z" fill="url(#prefix__paint4_linear_4909_29464)"/><path d="M149.165 164.099a1.286 1.286 0 00.656 1.128l188.331 108.842a2.62 2.62 0 001.302.349v6.936a2.62 2.62 0 01-1.302-.349L149.821 172.171a1.297 1.297 0 01-.656-1.128v-6.944z" fill="url(#prefix__paint5_linear_4909_29464)"/><path d="M340.748 274.069l81.074-46.809a1.29 1.29 0 00.647-1.128v6.944a1.309 1.309 0 01-.647 1.129l-81.074 46.8c-.395.23-.845.35-1.302.349v-6.936c.457.001.907-.119 1.302-.349z" fill="url(#prefix__paint6_linear_4909_29464)"/><path d="M332.461 248.632c.242.139.498.253.763.34.272.076.55.134.829.175.082.011.16.036.233.074a.175.175 0 01.083.216l-.158.465a.285.285 0 01-.133.149.714.714 0 01-.34.075c-.216 0-.431 0-.63-.05s-.424-.066-.689-.125c.108.755-.29 1.386-1.186 1.909a4.268 4.268 0 01-2.083.564 3.974 3.974 0 01-2.032-.523c-.648-.373-.946-.829-.872-1.311.075-.481.49-.97 1.27-1.418.265-.15.556-.291.829-.432.274-.141.672-.274 1.046-.415l-.556-.323a3.238 3.238 0 00-1.576-.498 3.466 3.466 0 00-1.602.514c-.26.152-.503.333-.721.54a4.33 4.33 0 00-.565.622l-.166.216-.099.083a.385.385 0 01-.398-.05l-.374-.216c-.124-.066-.199-.124-.215-.182a.3.3 0 01.049-.216c.172-.279.382-.533.623-.755a4.88 4.88 0 011.045-.772 5.324 5.324 0 012.622-.829 4.92 4.92 0 012.489.721l2.489 1.427.025.025zm-1.934 2.489c.246-.137.465-.316.648-.531a.902.902 0 00.232-.697.734.734 0 00-.224-.439 3.185 3.185 0 00-.589-.423l-.324-.183c-.274.091-.556.207-.829.324a7.262 7.262 0 00-.764.39c-.514.298-.829.572-.829.829s.116.498.497.722c.331.199.71.302 1.096.299a2.033 2.033 0 001.086-.324v.033zm6.953-3.061a.758.758 0 01-.365.124 1.388 1.388 0 01-.456-.083l-7.7-2.372a1.821 1.821 0 01-.373-.133c-.124-.075-.133-.15 0-.216l.747-.431a.822.822 0 01.373-.133c.156.006.31.036.456.091l6.331 2.174-3.858-3.609c-.116-.108-.166-.191-.158-.249.008-.058.091-.141.232-.224l.614-.357a.756.756 0 01.382-.124.952.952 0 01.44.083l6.313 2.207-3.791-3.717c-.108-.116-.158-.199-.15-.257.009-.058.083-.141.225-.216l.705-.415a.373.373 0 01.381 0l.108.083.141.141 4.066 4.472c.099.116.149.199.132.265a.427.427 0 01-.215.208l-.656.381a.87.87 0 01-.381.133 1.316 1.316 0 01-.448-.091l-6.107-2.165 3.742 3.517c.108.116.166.199.158.266-.009.066-.092.141-.233.215l-.655.432zm10.022-5.542a8.277 8.277 0 01-1.319.597 7.416 7.416 0 01-1.178.332 1.396 1.396 0 01-.456 0 .944.944 0 01-.258-.091l-.39-.233c-.157-.091-.174-.166-.058-.232l.158-.066.265-.067c.378-.085.75-.196 1.112-.331.344-.131.677-.29.996-.473.353-.168.644-.444.829-.789.092-.248 0-.464-.323-.647a1.525 1.525 0 00-.739-.19 4.233 4.233 0 00-1.169.215l-1.452.44a5.383 5.383 0 01-2 .257 3.683 3.683 0 01-1.493-.415 1.574 1.574 0 01-.639-.614.924.924 0 01-.075-.68c.068-.261.206-.5.399-.689.244-.249.524-.461.829-.63.166-.091.349-.191.54-.274.19-.083.39-.166.58-.241l.556-.174c.152-.049.307-.085.465-.108a1.92 1.92 0 01.415 0c.115.01.226.047.323.108l.357.208c.158.091.183.174.066.24-.122.054-.25.093-.381.116a5.871 5.871 0 00-1.759.672 1.798 1.798 0 00-.83.714c-.091.216 0 .415.324.597.236.128.503.191.771.183.429-.029.852-.11 1.261-.241l1.427-.431a5.175 5.175 0 011.917-.257c.498.028.984.17 1.419.414.281.142.519.357.688.623.12.217.161.469.116.713a1.517 1.517 0 01-.423.73c-.257.267-.55.496-.871.681v.033zM352.654 243.787c-.655 2.489-3.319 5.202-6.463 7.011a33.833 33.833 0 01-15.68 4.057c-.448 0-.531-.274-.075-.34a42.405 42.405 0 0014.378-4.821 21.808 21.808 0 006.894-6.031c.224-.349 1.054-.291.946.124zm-.149-1.286c-.73-.058-2.315 1.112-3.037 1.659-.216.158-.464.058-.406-.157.431-1.411 3.078-2.605 3.692-2.572.614.033 2.621 1.601 2.414 3.028a.255.255 0 01-.199.205.261.261 0 01-.149-.012.26.26 0 01-.117-.093c-.448-.639-1.468-2.016-2.198-2.058z" fill="#000"/><path opacity=".2" d="M347.63 83.432l176.584 102.163a.63.63 0 01.312.54.62.62 0 01-.312.539l-76.868 44.386a1.654 1.654 0 01-1.659 0L267.494 127.951a.616.616 0 01-.312-.539.621.621 0 01.312-.539l75.258-43.441a4.88 4.88 0 014.878 0z" fill="#63D0FF"/><path d="M340.629 53.747L528.96 162.589a1.311 1.311 0 010 2.257l-81.074 46.809a2.6 2.6 0 01-2.605 0L256.95 102.813a1.307 1.307 0 01-.652-1.129 1.297 1.297 0 01.652-1.128l81.065-46.81a2.606 2.606 0 012.614 0z" fill="url(#prefix__paint7_linear_4909_29464)"/><path d="M256.303 101.684a1.27 1.27 0 00.655 1.128L445.29 211.655a2.62 2.62 0 001.302.348v6.936a2.63 2.63 0 01-1.302-.348L256.958 109.757a1.304 1.304 0 01-.655-1.129v-6.944z" fill="url(#prefix__paint8_linear_4909_29464)"/><path d="M447.886 211.655l81.074-46.809a1.292 1.292 0 00.647-1.129v6.944a1.303 1.303 0 01-.647 1.129l-81.074 46.801a2.59 2.59 0 01-1.303.348v-6.936a2.59 2.59 0 001.303-.348z" fill="url(#prefix__paint9_linear_4909_29464)"/><path d="M453.349 187.831l4.978-2.887c2.895-1.659 3.575-4.19 1.659-6.256-1.917-2.066-5.907-3.186-9.89-2.746a20.621 20.621 0 00-7.093-.962v3.285c2.014-.158 4.03.268 5.808 1.228l.497.29c3.319-1.924 8.297.963 4.978 2.888l-4.978 2.895 4.041 2.265z" fill="#000"/><path d="M443.143 178.207l-.042-3.228c-4.389.158-8.296 1.66-10.412 3.85-2.115 2.19-2.016 4.978.183 7.152a5.23 5.23 0 012.489-2.796c.461-.249.941-.463 1.435-.639-.224-2.182 2.539-4.09 6.297-4.314l.05-.025zM448.346 190.71l4.978-2.887-3.941-2.299-4.978 2.888a4.372 4.372 0 01-1.253.456v3.319a12.463 12.463 0 005.227-1.51l-.033.033z" fill="#000"/><path d="M435.361 183.243c-2.754 1.618-3.443 4.065-1.659 6.098 1.783 2.032 5.534 3.194 9.425 2.904v-3.319c-2.315.506-4.779-.481-4.779-1.908s2.489-2.415 4.779-1.908v-3.319a13.884 13.884 0 00-7.766 1.452z" fill="#000"/><path d="M560.742 191.511l-35.128 20.261a2.205 2.205 0 00-.797 2.995c.191.333.466.611.797.806l35.128 20.261a4.45 4.45 0 004.398 0l35.072-20.261a2.196 2.196 0 001.102-1.901 2.193 2.193 0 00-1.102-1.9l-35.072-20.261a4.37 4.37 0 00-4.398 0z" fill="url(#prefix__paint10_linear_4909_29464)"/><path d="M601.358 213.611a2.168 2.168 0 01-1.103 1.907l-35.114 20.318a4.364 4.364 0 01-2.206.579v11.727a4.382 4.382 0 002.206-.593l35.071-20.261a2.2 2.2 0 001.103-1.907v-11.77h.043z" fill="url(#prefix__paint11_linear_4909_29464)"/><path d="M560.743 235.828l-35.128-20.261a2.186 2.186 0 01-1.089-1.908v11.713a2.186 2.186 0 001.089 1.908l35.128 20.233a4.37 4.37 0 002.192.593v-11.727a4.36 4.36 0 01-2.192-.551z" fill="url(#prefix__paint12_linear_4909_29464)"/><path d="M556.852 215.565c-.405.234-.405.613 0 .847.405.234 1.063.234 1.468 0l7.828-4.519c.406-.234.406-.614 0-.848-.405-.234-1.062-.234-1.468 0l-7.828 4.52zM560.766 218.672c-.405-.234-.405-.614 0-.848l5.872-3.389c.405-.234 1.062-.234 1.467 0 .406.234.406.613 0 .847l-5.871 3.39c-.405.234-1.062.234-1.468 0zM552.938 213.305c-.406.234-.406.614 0 .848.405.234 1.062.234 1.468 0l1.957-1.13c.405-.234.405-.614 0-.848-.406-.234-1.063-.234-1.468 0l-1.957 1.13z" fill="#fff"/><path fill-rule="evenodd" clip-rule="evenodd" d="M544.131 213.588c-1.486-.858-1.486-2.249 0-3.107l7.423-4.286c.454-.262 1.07-.409 1.712-.409h11.575c.642 0 1.258.147 1.713.409l11.337 6.545c1.486.858 1.486 2.249 0 3.107l-12.232 7.062c-1.486.858-3.896.858-5.382 0l-16.146-9.321zm1.468-2.26c-.676.39-.676 1.022 0 1.412l16.146 9.321c.675.39 1.771.39 2.446 0L576.423 215c.676-.39.676-1.022 0-1.412l-11.009-6.356-5.626 3.249c-.406.234-1.063.234-1.468 0l-5.627-3.249-7.094 4.096zm9.6-4.344h7.71l-3.855 2.225-3.855-2.225z" fill="#fff"/><path d="M221.994 130.915l-35.128 20.262a2.205 2.205 0 00-.797 2.995c.191.333.466.611.797.805l35.128 20.261a4.441 4.441 0 004.399 0l35.071-20.261a2.186 2.186 0 00.807-2.998 2.186 2.186 0 00-.807-.802l-35.071-20.262a4.38 4.38 0 00-4.399 0z" fill="url(#prefix__paint13_linear_4909_29464)"/><path d="M262.61 153.016a2.168 2.168 0 01-1.103 1.907l-35.114 20.318a4.374 4.374 0 01-2.206.579v11.727a4.382 4.382 0 002.206-.593l35.072-20.261a2.22 2.22 0 00.807-.806 2.22 2.22 0 00.296-1.102v-11.769h.042z" fill="url(#prefix__paint14_linear_4909_29464)"/><path d="M221.995 175.233l-35.128-20.262a2.184 2.184 0 01-1.089-1.907v11.713a2.186 2.186 0 001.089 1.907l35.128 20.233a4.373 4.373 0 002.192.594v-11.727a4.36 4.36 0 01-2.192-.551z" fill="url(#prefix__paint15_linear_4909_29464)"/><path d="M218.104 154.97c-.405.234-.405.613 0 .847.406.234 1.063.234 1.468 0l7.829-4.519c.405-.234.405-.614 0-.848-.406-.234-1.063-.234-1.468 0l-7.829 4.52zM222.019 158.077c-.406-.234-.406-.614 0-.848l5.871-3.389c.405-.234 1.062-.234 1.468 0 .405.234.405.613 0 .847l-5.872 3.39c-.405.234-1.062.234-1.467 0zM214.19 152.71c-.405.234-.405.613 0 .847.405.234 1.063.234 1.468 0l1.957-1.13c.405-.234.405-.613 0-.847-.405-.234-1.062-.234-1.468 0l-1.957 1.13z" fill="#fff"/><path fill-rule="evenodd" clip-rule="evenodd" d="M205.383 152.992c-1.486-.858-1.486-2.249 0-3.107l7.423-4.285c.454-.262 1.07-.41 1.713-.41h11.574c.643 0 1.259.148 1.713.41l11.337 6.545c1.486.858 1.486 2.249 0 3.107l-12.232 7.062c-1.486.858-3.896.858-5.382 0l-16.146-9.322zm1.468-2.259c-.676.39-.676 1.022 0 1.412l16.146 9.321c.676.39 1.771.39 2.446 0l12.232-7.061c.676-.39.676-1.023 0-1.413l-11.008-6.355-5.627 3.248c-.405.234-1.063.234-1.468 0l-5.627-3.248-7.094 4.096zm9.6-4.344h7.71l-3.855 2.225-3.855-2.225z" fill="#fff"/><path d="M328.743 67.482l-35.128 20.26a2.201 2.201 0 00-.797 2.996 2.2 2.2 0 00.797.805l35.128 20.261a4.44 4.44 0 004.398 0l35.071-20.26a2.187 2.187 0 00.807-3 2.187 2.187 0 00-.807-.801l-35.071-20.261a4.372 4.372 0 00-4.398 0z" fill="url(#prefix__paint16_linear_4909_29464)"/><path d="M369.358 89.582a2.17 2.17 0 01-1.103 1.907l-35.113 20.318a4.37 4.37 0 01-2.207.579v11.727a4.386 4.386 0 002.207-.593l35.071-20.261a2.204 2.204 0 001.103-1.908v-11.77h.042z" fill="url(#prefix__paint17_linear_4909_29464)"/><path d="M328.743 111.799l-35.128-20.261a2.192 2.192 0 01-1.089-1.908v11.713a2.196 2.196 0 001.089 1.908l35.128 20.232a4.376 4.376 0 002.192.594V112.35a4.366 4.366 0 01-2.192-.551z" fill="url(#prefix__paint18_linear_4909_29464)"/><path d="M324.853 91.536c-.406.234-.406.613 0 .847.405.234 1.062.234 1.468 0l7.828-4.52c.405-.233.405-.613 0-.847-.405-.234-1.063-.234-1.468 0l-7.828 4.52zM328.767 94.643c-.405-.234-.405-.614 0-.848l5.871-3.39c.406-.233 1.063-.233 1.468 0 .405.235.405.614 0 .848l-5.871 3.39c-.406.234-1.063.234-1.468 0zM320.938 89.276c-.405.234-.405.614 0 .848.406.233 1.063.233 1.468 0l1.957-1.13c.406-.234.406-.614 0-.848-.405-.234-1.062-.234-1.467 0l-1.958 1.13z" fill="#fff"/><path fill-rule="evenodd" clip-rule="evenodd" d="M312.132 89.558c-1.487-.858-1.487-2.249 0-3.107l7.423-4.285c.454-.262 1.07-.41 1.712-.41h11.575c.642 0 1.258.148 1.712.41l11.338 6.545c1.486.858 1.486 2.25 0 3.107L333.66 98.88c-1.487.858-3.896.858-5.382 0l-16.146-9.322zm1.467-2.26c-.675.39-.675 1.023 0 1.413l16.146 9.321c.676.39 1.771.39 2.447 0l12.232-7.061c.675-.39.675-1.023 0-1.413l-11.009-6.355-5.627 3.248c-.405.235-1.062.235-1.467 0l-5.627-3.248-7.095 4.096zm9.601-4.343h7.709l-3.855 2.225-3.854-2.225z" fill="#fff"/><path d="M93.284 264.853c20.193 0 36.563-16.37 36.563-36.563s-16.37-36.563-36.563-36.563-36.563 16.37-36.563 36.563 16.37 36.563 36.563 36.563z" fill="#1D1E1F" stroke="#F2F2F3" stroke-width=".83" stroke-miterlimit="10"/><path d="M114.698 272.552c8 0 14.485-6.486 14.485-14.486s-6.485-14.486-14.485-14.486c-8.001 0-14.486 6.486-14.486 14.486s6.485 14.486 14.486 14.486z" fill="#1868F2"/><path d="M110.774 261.202a.552.552 0 01-.386-.139l-3.354-2.777a.611.611 0 01-.214-.46.6.6 0 01.214-.46l3.338-2.785a.613.613 0 01.82.082.588.588 0 01.129.425.585.585 0 01-.203.396l-2.813 2.325 2.813 2.342a.586.586 0 01.186.656.594.594 0 01-.555.395h.025zM118.629 261.382a.575.575 0 01-.459-.213.57.57 0 01-.136-.427.574.574 0 01.21-.395l2.796-2.341-2.812-2.374a.579.579 0 01.133-.978.584.584 0 01.637.082l3.362 2.777a.622.622 0 01.214.46.603.603 0 01-.214.46l-3.345 2.785a.719.719 0 01-.386.164zM112.955 263.552a.707.707 0 01-.172 0 .586.586 0 01-.386-.732l3.28-10.286a.581.581 0 01.208-.304.58.58 0 01.35-.115.774.774 0 01.18 0 .582.582 0 01.345.304.51.51 0 010 .419l-3.223 10.295a.595.595 0 01-.582.419zM89.333 228a1 1 0 000 2H100a1 1 0 000-2H89.333zM88.333 234.333a1 1 0 011-1h8a1 1 0 010 2h-8a1 1 0 01-1-1zM89.333 222.667a1 1 0 100 2H92a1 1 0 000-2h-2.667z" fill="#fff"/><path fill-rule="evenodd" clip-rule="evenodd" d="M83 217a3.667 3.667 0 013.667-3.667H96.78c.619 0 1.212.246 1.65.684l7.886 7.885c.437.438.683 1.031.683 1.65V239a3.667 3.667 0 01-3.667 3.667H86.667A3.667 3.667 0 0183 239v-22zm3.667-1.667c-.92 0-1.667.747-1.667 1.667v22c0 .92.746 1.667 1.667 1.667h16.666c.921 0 1.667-.747 1.667-1.667v-15h-7.667a1 1 0 01-1-1v-7.667h-9.666zm11.666 1.415l5.253 5.252h-5.253v-5.252z" fill="#fff"/><defs><linearGradient id="prefix__paint0_linear_4909_29464" x1="52.516" y1="323.333" x2="337.557" y2="323.333" gradientUnits="userSpaceOnUse"><stop offset=".01" stop-color="#B5F3FF"/><stop offset=".426" stop-color="#66D9EF"/><stop offset="1" stop-color="#4FCBE2"/></linearGradient><linearGradient id="prefix__paint1_linear_4909_29464" x1="114215" y1="48481.5" x2="204584" y2="48481.5" gradientUnits="userSpaceOnUse"><stop stop-color="#FAFAFA"/><stop offset=".68" stop-color="#FAFAFA"/><stop offset="1" stop-color="#EFEFF0"/></linearGradient><linearGradient id="prefix__paint2_linear_4909_29464" x1="98872.8" y1="39867.4" x2="142750" y2="39867.4" gradientUnits="userSpaceOnUse"><stop stop-color="#C0C0C2"/><stop offset="1" stop-color="#DBDBDC"/></linearGradient><linearGradient id="prefix__paint3_linear_4909_29464" x1="34885.3" y1="20997.6" x2="43193.4" y2="20997.6" gradientUnits="userSpaceOnUse"><stop offset=".01" stop-color="#EFEFF0"/><stop offset=".48" stop-color="#E7E7E8"/><stop offset="1" stop-color="#D8D8D9"/></linearGradient><linearGradient id="prefix__paint4_linear_4909_29464" x1="42984.3" y1="36613.2" x2="133017" y2="36613.2" gradientUnits="userSpaceOnUse"><stop stop-color="#FAFAFA"/><stop offset=".68" stop-color="#FAFAFA"/><stop offset="1" stop-color="#EFEFF0"/></linearGradient><linearGradient id="prefix__paint5_linear_4909_29464" x1="29973.2" y1="31047.9" x2="73616.1" y2="31047.9" gradientUnits="userSpaceOnUse"><stop offset=".01" stop-color="#EFEFF0"/><stop offset=".48" stop-color="#E7E7E8"/><stop offset="1" stop-color="#D8D8D9"/></linearGradient><linearGradient id="prefix__paint6_linear_4909_29464" x1="32393.2" y1="16835.2" x2="40701.3" y2="16835.2" gradientUnits="userSpaceOnUse"><stop stop-color="#C0C0C2"/><stop offset="1" stop-color="#DBDBDC"/></linearGradient><linearGradient id="prefix__paint7_linear_4909_29464" x1="43091.5" y1="36550.8" x2="133124" y2="36550.8" gradientUnits="userSpaceOnUse"><stop stop-color="#FAFAFA"/><stop offset=".68" stop-color="#FAFAFA"/><stop offset="1" stop-color="#EFEFF0"/></linearGradient><linearGradient id="prefix__paint8_linear_4909_29464" x1="30080.4" y1="30985.5" x2="73723.2" y2="30985.5" gradientUnits="userSpaceOnUse"><stop offset=".01" stop-color="#EFEFF0"/><stop offset=".48" stop-color="#E7E7E8"/><stop offset="1" stop-color="#D8D8D9"/></linearGradient><linearGradient id="prefix__paint9_linear_4909_29464" x1="32500.3" y1="16772.8" x2="40808.5" y2="16772.8" gradientUnits="userSpaceOnUse"><stop stop-color="#C0C0C2"/><stop offset="1" stop-color="#DBDBDC"/></linearGradient><linearGradient id="prefix__paint10_linear_4909_29464" x1="524.525" y1="213.665" x2="601.315" y2="213.665" gradientUnits="userSpaceOnUse"><stop offset=".121" stop-color="#569FFF"/><stop offset="1" stop-color="#2264D6"/></linearGradient><linearGradient id="prefix__paint11_linear_4909_29464" x1="20375.4" y1="5608.8" x2="21419.4" y2="5608.8" gradientUnits="userSpaceOnUse"><stop offset=".01" stop-color="#2264D6"/><stop offset="1" stop-color="#4294FF"/></linearGradient><linearGradient id="prefix__paint12_linear_4909_29464" x1="524.525" y1="230.881" x2="562.935" y2="230.881" gradientUnits="userSpaceOnUse"><stop offset=".121" stop-color="#569FFF"/><stop offset="1" stop-color="#2264D6"/></linearGradient><linearGradient id="prefix__paint13_linear_4909_29464" x1="185.777" y1="153.07" x2="262.567" y2="153.07" gradientUnits="userSpaceOnUse"><stop offset=".121" stop-color="#569FFF"/><stop offset="1" stop-color="#2264D6"/></linearGradient><linearGradient id="prefix__paint14_linear_4909_29464" x1="20036.7" y1="5548.2" x2="21080.6" y2="5548.2" gradientUnits="userSpaceOnUse"><stop offset=".01" stop-color="#2264D6"/><stop offset="1" stop-color="#4294FF"/></linearGradient><linearGradient id="prefix__paint15_linear_4909_29464" x1="185.778" y1="170.286" x2="224.187" y2="170.286" gradientUnits="userSpaceOnUse"><stop offset=".121" stop-color="#569FFF"/><stop offset="1" stop-color="#2264D6"/></linearGradient><linearGradient id="prefix__paint16_linear_4909_29464" x1="292.526" y1="89.636" x2="369.315" y2="89.636" gradientUnits="userSpaceOnUse"><stop offset=".121" stop-color="#569FFF"/><stop offset="1" stop-color="#2264D6"/></linearGradient><linearGradient id="prefix__paint17_linear_4909_29464" x1="20143.4" y1="5484.77" x2="21187.4" y2="5484.77" gradientUnits="userSpaceOnUse"><stop offset=".01" stop-color="#2264D6"/><stop offset="1" stop-color="#4294FF"/></linearGradient><linearGradient id="prefix__paint18_linear_4909_29464" x1="292.526" y1="106.852" x2="330.936" y2="106.852" gradientUnits="userSpaceOnUse"><stop offset=".121" stop-color="#569FFF"/><stop offset="1" stop-color="#2264D6"/></linearGradient></defs></svg>